;Layer: Drill PTH
;EasyEDA v5.9.42, Mon, 01 Apr 2019 20:05:28 GMT
;e7f0afa64d6d408caf880ab9bb1ba352
;Gerber Generator version 0.2
M48
METRIC,LZ,000.000
;Holesize 1 = 0.501 METRIC
T01C0.501
;Holesize 2 = 0.600 METRIC
T02C0.600
;Holesize 3 = 0.712 METRIC
T03C0.712
;Holesize 4 = 0.801 METRIC
T04C0.801
;Holesize 5 = 0.900 METRIC
T05C0.900
;Holesize 6 = 0.915 METRIC
T06C0.915
;Holesize 7 = 1.001 METRIC
T07C1.001
;Holesize 8 = 1.301 METRIC
T08C1.301
;Holesize 9 = 1.601 METRIC
T09C1.601
%
G05
G90
T01
X+002667Y+027432
X+023114Y+027940
X+009779Y+010922
X+005588Y+011938
X+032512Y+028067
X+036068Y+001270
X+002540Y+006477
X+001905Y+010922
X+012192Y+013462
X+034544Y+005715
X+027813Y+014478
X+033528Y+014478
X+048641Y+026924
X+047879Y+016002
X+029845Y+020320
X+011303Y+006350
X+012954Y+006350
X+003810Y+006477
X+007874Y+029718
T02
X+030214Y+029591
X+028713Y+029591
X+028078Y+010287
X+029579Y+010287
T03
X+045466Y+031496
X+045466Y+034036
X+048641Y+031496
X+048641Y+034036
X+015240Y+019431
X+015240Y+021971
X+018796Y+021971
X+018796Y+019431
X+021971Y+019431
X+021971Y+021971
X+017907Y+016129
X+015367Y+016129
X+022733Y+016383
X+022733Y+013843
X+037338Y+007239
X+037338Y+004699
X+037973Y+010160
X+035433Y+010160
X+040386Y+029337
X+042926Y+029337
X+037211Y+029210
X+034671Y+029210
X+043688Y+020447
X+046228Y+020447
X+025654Y+012446
X+025654Y+014986
T04
X+008514Y+004699G85X+008315Y+004699
X+012514Y+004699G85X+012313Y+004699
X+010515Y+004699G85X+010314Y+004699
X+011805Y+032639G85X+012004Y+032639
X+007805Y+032639G85X+008006Y+032639
X+009804Y+032639G85X+010005Y+032639
X+051302Y+028110G85X+051297Y+028110
X+051302Y+033012G85X+051297Y+033012
T05
X+041148Y+019177
X+041148Y+011557
X+026162Y+028067
X+026162Y+017907
X+029083Y+016002
X+036703Y+016002
X+036703Y+012954
X+029083Y+012954
X+028829Y+021971
X+036449Y+021971
X+036830Y+018415
X+029210Y+018415
X+022733Y+010541
X+022733Y+002921
X+019939Y+013843
X+019939Y+006223
X+017145Y+006223
X+017145Y+013843
X+039116Y+021463
X+039116Y+013843
X+041148Y+022987
X+048768Y+022987
X+049276Y+007493
X+049276Y+015113
X+046355Y+014478
X+046355Y+006858
T06
X+023622Y+034417
X+026543Y+034417
X+017272Y+034417
X+002159Y+032131
X+002159Y+034925
X+020193Y+034417
X+029464Y+034417
X+001778Y+001778
X+049149Y+020447
X+049149Y+017653
X+040767Y+006477
X+043688Y+006477
X+001778Y+004572
X+002159Y+029210
X+046609Y+003429
X+040767Y+003429
X+043688Y+003429
T07
X+014615Y+004947G85X+014615Y+004450
X+006215Y+004947G85X+006215Y+004450
X+005704Y+032390G85X+005704Y+032887
X+014104Y+032390G85X+014104Y+032887
T08
X+027686Y+005080
X+032766Y+005080
X+030226Y+005080
X+035560Y+033909
X+040640Y+033909
X+038100Y+033909
T09
X+054300Y+027005G85X+054300Y+027005
X+054300Y+034117G85X+054300Y+034117
M30
