G04 Layer: BottomSolderMaskLayer*
G04 EasyEDA v5.9.42, Mon, 01 Apr 2019 20:05:28 GMT*
G04 e7f0afa64d6d408caf880ab9bb1ba352*
G04 Gerber Generator version 0.2*
G04 Scale: 100 percent, Rotated: No, Reflected: No *
G04 Dimensions in millimeters *
G04 leading zeros omitted , absolute positions ,3 integer and 3 decimal *
%FSLAX33Y33*%
%MOMM*%
G90*
G71D02*

%ADD41C,2.203196*%
%ADD42C,1.503172*%
%ADD43C,1.397000*%
%ADD44C,2.082800*%
%ADD46C,1.203198*%
%ADD47R,2.203196X2.703195*%
%ADD49C,1.701800*%
%ADD50R,1.701800X1.701800*%
%ADD57R,2.603246X2.603246*%

%LPD*%
G54D41*
G01X32766Y5329D02*
G01X32766Y4829D01*
G01X30226Y5329D02*
G01X30226Y4829D01*
G01X40640Y34157D02*
G01X40640Y33660D01*
G01X38100Y34157D02*
G01X38100Y33660D01*
G54D42*
G01X8564Y4699D02*
G01X8262Y4699D01*
G01X12562Y4699D02*
G01X12263Y4699D01*
G01X10563Y4699D02*
G01X10264Y4699D01*
G54D41*
G01X14615Y5199D02*
G01X14615Y4198D01*
G01X6212Y5199D02*
G01X6212Y4198D01*
G54D42*
G01X11755Y32639D02*
G01X12054Y32639D01*
G01X7757Y32639D02*
G01X8056Y32639D01*
G01X9756Y32639D02*
G01X10055Y32639D01*
G54D41*
G01X5704Y32138D02*
G01X5704Y33139D01*
G01X14107Y32138D02*
G01X14107Y33139D01*
G54D43*
G01X45466Y31496D03*
G01X45466Y34036D03*
G54D44*
G01X41148Y19177D03*
G01X41148Y11557D03*
G54D43*
G01X48641Y31496D03*
G01X48641Y34036D03*
G54D44*
G01X26162Y28067D03*
G01X26162Y17907D03*
G54D46*
G01X30214Y29591D03*
G01X28713Y29591D03*
G54D44*
G01X29083Y16002D03*
G01X36703Y16002D03*
G01X36703Y12954D03*
G01X29083Y12954D03*
G01X28829Y21971D03*
G01X36449Y21971D03*
G01X36830Y18415D03*
G01X29210Y18415D03*
G54D46*
G01X28078Y10287D03*
G01X29579Y10287D03*
G54D43*
G01X15240Y19431D03*
G01X15240Y21971D03*
G01X18796Y21971D03*
G01X18796Y19431D03*
G01X21971Y19431D03*
G01X21971Y21971D03*
G01X17907Y16129D03*
G01X15367Y16129D03*
G54D44*
G01X22733Y10541D03*
G01X22733Y2921D03*
G54D43*
G01X22733Y16383D03*
G01X22733Y13843D03*
G54D44*
G01X19939Y13843D03*
G01X19939Y6223D03*
G01X17145Y6223D03*
G01X17145Y13843D03*
G54D47*
G01X27686Y5080D03*
G54D43*
G01X37338Y7239D03*
G01X37338Y4699D03*
G54D44*
G01X39116Y21463D03*
G01X39116Y13843D03*
G54D43*
G01X37973Y10160D03*
G01X35433Y10160D03*
G54D47*
G01X35560Y33909D03*
G54D43*
G01X40386Y29337D03*
G01X42926Y29337D03*
G01X37211Y29210D03*
G01X34671Y29210D03*
G54D44*
G01X41148Y22987D03*
G01X48768Y22987D03*
G54D43*
G01X43688Y20447D03*
G01X46228Y20447D03*
G54D44*
G01X49276Y7493D03*
G01X49276Y15113D03*
G01X46355Y14478D03*
G01X46355Y6858D03*
G54D49*
G01X23622Y34417D03*
G01X26543Y34417D03*
G01X17272Y34417D03*
G01X2159Y32131D03*
G01X2159Y34925D03*
G01X20193Y34417D03*
G01X29464Y34417D03*
G01X1778Y1778D03*
G54D50*
G01X49149Y20447D03*
G01X49149Y17653D03*
G01X40767Y6477D03*
G01X43688Y6477D03*
G01X1778Y4572D03*
G01X2159Y29210D03*
G54D43*
G01X25654Y12446D03*
G01X25654Y14986D03*
G54D50*
G01X46609Y3429D03*
G01X40767Y3429D03*
G01X43688Y3429D03*
G36*
G01X50987Y27353D02*
G01X50540Y27795D01*
G01X50540Y28427D01*
G01X50987Y28869D01*
G01X51615Y28869D01*
G01X52057Y28427D01*
G01X52057Y27795D01*
G01X51615Y27353D01*
G01X50987Y27353D01*
G37*
G36*
G01X50987Y32252D02*
G01X50540Y32694D01*
G01X50540Y33327D01*
G01X50987Y33769D01*
G01X51615Y33769D01*
G01X52057Y33327D01*
G01X52057Y32694D01*
G01X51615Y32252D01*
G01X50987Y32252D01*
G37*
G54D57*
G01X54300Y27004D03*
G01X54300Y34116D03*
M00*
M02*
