G04 Layer: TopLayer*
G04 EasyEDA v5.9.42, Mon, 01 Apr 2019 20:05:28 GMT*
G04 e7f0afa64d6d408caf880ab9bb1ba352*
G04 Gerber Generator version 0.2*
G04 Scale: 100 percent, Rotated: No, Reflected: No *
G04 Dimensions in millimeters *
G04 leading zeros omitted , absolute positions ,3 integer and 3 decimal *
%FSLAX33Y33*%
%MOMM*%
G90*
G71D02*

%ADD11C,0.609600*%
%ADD12C,0.304800*%
%ADD13C,0.457200*%
%ADD14C,0.610006*%
%ADD15C,0.406400*%
%ADD16C,1.999996*%
%ADD17C,0.999998*%
%ADD18R,1.348740X0.399999*%
%ADD19R,0.750011X0.280010*%
%ADD20R,1.059993X0.650011*%
%ADD21R,0.419989X0.999998*%
%ADD22R,1.905000X0.699999*%
%ADD23R,1.193800X0.650011*%
%ADD24R,0.899160X1.485900*%
%ADD25R,1.350010X0.400050*%
%ADD26C,1.193800*%
%ADD27C,1.879600*%
%ADD28R,1.999996X2.499995*%
%ADD29C,1.498600*%
%ADD30R,1.498600X1.498600*%
%ADD31R,2.400046X2.400046*%
%ADD32C,1.299972*%

%LPD*%
G54D11*
G01X3975Y25906D02*
G01X3975Y30314D01*
G01X2159Y32131D01*
G01X5486Y25908D02*
G01X5486Y30327D01*
G01X4064Y31402D01*
G01X4064Y32639D01*
G01X2159Y34544D01*
G01X2159Y34925D01*
G01X6972Y25906D02*
G01X6972Y26911D01*
G01X10414Y30353D01*
G01X14605Y30353D01*
G01X16764Y32512D01*
G01X18288Y32512D01*
G01X20193Y34417D01*
G01X8470Y25908D02*
G01X8470Y27012D01*
G01X11049Y29591D01*
G01X14986Y29591D01*
G01X17018Y31623D01*
G01X18796Y31623D01*
G01X19685Y32512D01*
G01X21971Y32512D01*
G01X21971Y35687D01*
G01X21945Y36322D01*
G01X9969Y25908D02*
G01X9969Y27241D01*
G01X11557Y28829D01*
G01X15621Y28829D01*
G01X17653Y30861D01*
G01X19685Y30861D01*
G01X20574Y31750D01*
G01X23495Y31750D01*
G01X23622Y31877D01*
G01X23622Y34417D01*
G01X11468Y25908D02*
G01X11468Y27089D01*
G01X12319Y27940D01*
G01X15875Y27940D01*
G01X18034Y30099D01*
G01X20320Y30099D01*
G01X21209Y30988D01*
G01X24257Y30988D01*
G01X25781Y32512D01*
G01X25781Y33909D01*
G01X29464Y34417D02*
G01X29464Y33782D01*
G01X28448Y32766D01*
G01X27305Y32766D01*
G01X26797Y32258D01*
G01X26797Y32258D02*
G01X24638Y30099D01*
G01X21463Y30099D01*
G01X20320Y28956D01*
G01X18288Y28956D01*
G01X16256Y26924D01*
G01X14546Y26924D01*
G01X12992Y25908D01*
G01X18796Y21971D02*
G01X18034Y21971D01*
G01X18034Y24511D01*
G01X19085Y24511D01*
G01X18796Y21971D02*
G01X21971Y21971D01*
G01X18796Y19431D02*
G01X21971Y19431D01*
G01X18796Y19431D02*
G01X18796Y17018D01*
G01X17907Y16129D01*
G54D12*
G01X19939Y13843D02*
G01X19558Y13843D01*
G01X19431Y13716D01*
G01X19939Y13843D02*
G01X19558Y13843D01*
G01X19431Y13716D01*
G01X19939Y13843D02*
G01X19558Y13843D01*
G01X19431Y13716D01*
G54D11*
G01X15367Y16129D02*
G01X15367Y15621D01*
G01X17145Y13843D01*
G01X17907Y16129D02*
G01X22479Y16129D01*
G01X22733Y16383D01*
G01X19939Y13843D02*
G01X19939Y14097D01*
G01X17907Y16129D01*
G01X22733Y13843D02*
G01X22733Y10541D01*
G01X17145Y13843D02*
G01X17780Y13843D01*
G01X18415Y13208D01*
G01X18415Y10566D01*
G01X21590Y8661D01*
G01X21590Y3683D01*
G01X21971Y3683D01*
G01X22733Y2921D01*
G01X29579Y10287D02*
G01X32766Y7100D01*
G01X32766Y5080D01*
G01X26162Y28067D02*
G01X27189Y28067D01*
G01X28713Y29591D01*
G01X36449Y21971D02*
G01X36449Y18796D01*
G01X36830Y18415D01*
G01X36703Y16002D02*
G01X36703Y12954D01*
G54D12*
G01X28829Y21971D02*
G01X28829Y21717D01*
G54D11*
G01X31369Y36347D02*
G01X31369Y30745D01*
G01X30214Y29591D01*
G01X28078Y10287D02*
G01X27686Y9894D01*
G01X27686Y5080D01*
G01X28078Y10287D02*
G01X25781Y10287D01*
G01X25654Y10414D01*
G01X25654Y12446D01*
G01X29579Y10287D02*
G01X29579Y10298D01*
G01X28448Y11430D01*
G01X26797Y11430D01*
G01X26797Y14986D01*
G01X26670Y15113D01*
G01X25781Y15113D01*
G01X25654Y14986D01*
G01X2476Y8126D02*
G01X2476Y6540D01*
G01X2540Y6477D01*
G01X977Y8126D02*
G01X977Y9994D01*
G01X1905Y10922D01*
G01X17145Y13843D02*
G01X16764Y13462D01*
G01X12192Y13462D01*
G01X9969Y8126D02*
G01X10033Y6731D01*
G01X10033Y6731D01*
G01X37338Y4699D02*
G01X32766Y4699D01*
G01X32766Y5080D01*
G01X37338Y4699D02*
G01X39116Y6477D01*
G01X40767Y6477D01*
G01X37338Y7239D02*
G01X37338Y9525D01*
G01X37973Y10160D01*
G01X39116Y13843D02*
G01X39116Y12573D01*
G01X38100Y11557D01*
G01X36830Y11557D01*
G01X35433Y10160D01*
G01X35433Y10160D02*
G01X35433Y6604D01*
G01X34544Y5715D01*
G01X33528Y14478D02*
G01X27813Y14478D01*
G01X32773Y36342D02*
G01X22098Y36322D01*
G01X21945Y36322D02*
G01X889Y36327D01*
G01X889Y29420D01*
G01X1099Y29210D01*
G01X2159Y29210D01*
G01X43688Y3429D02*
G01X43688Y6477D01*
G01X27686Y5080D02*
G01X27686Y1913D01*
G01X27694Y1905D01*
G01X36068Y1270D02*
G01X27686Y1270D01*
G01X27686Y1912D01*
G01X27686Y1651D02*
G01X27686Y1270D01*
G01X19304Y1270D01*
G01X19304Y4572D01*
G01X19177Y4699D01*
G01X19050Y4699D01*
G01X18542Y5207D01*
G01X18542Y7493D01*
G01X18288Y7747D01*
G01X17272Y7747D01*
G01X16891Y8128D01*
G01X12992Y8128D01*
G01X43688Y3429D02*
G01X43688Y2794D01*
G01X43738Y1651D01*
G01X43611Y1651D01*
G54D13*
G01X32512Y28067D02*
G01X34798Y28067D01*
G01X35811Y27053D01*
G01X34533Y27035D01*
G54D11*
G01X34671Y29210D02*
G01X34671Y29718D01*
G01X35814Y30861D01*
G01X37973Y30861D01*
G01X37973Y33782D01*
G01X38100Y33909D01*
G01X37211Y29210D02*
G01X40259Y29210D01*
G01X40386Y29337D01*
G01X42926Y29337D02*
G01X40640Y31623D01*
G01X40640Y33909D01*
G01X40640Y33909D02*
G01X45339Y33909D01*
G01X45466Y34036D01*
G01X54300Y34117D02*
G01X52406Y34117D01*
G01X51300Y33011D01*
G54D13*
G01X51300Y33011D02*
G01X51624Y32686D01*
G01X51624Y31860D01*
G54D11*
G01X51300Y33011D02*
G01X49665Y33011D01*
G01X48641Y34036D01*
G54D14*
G01X54300Y27005D02*
G01X54300Y34117D01*
G54D11*
G01X54300Y27005D02*
G01X54300Y26106D01*
G01X53721Y25527D01*
G01X50673Y25527D01*
G01X50673Y22098D01*
G01X50673Y22098D01*
G01X46840Y25908D02*
G01X50165Y25908D01*
G01X50546Y25527D01*
G01X34671Y29210D02*
G01X35433Y29210D01*
G01X37211Y27432D01*
G01X39497Y27432D01*
G01X41148Y22987D01*
G54D12*
G01X48768Y22987D02*
G01X48895Y22987D01*
G54D11*
G01X48768Y22987D02*
G01X48768Y24638D01*
G01X48514Y24892D01*
G01X46906Y24892D01*
G01X46840Y24958D01*
G01X48641Y26924D02*
G01X48641Y26924D01*
G01X48514Y26797D01*
G01X46901Y26797D01*
G01X46840Y26857D01*
G01X50673Y22098D02*
G01X50673Y17145D01*
G01X50546Y17653D02*
G01X50224Y17653D01*
G01X49149Y17653D01*
G01X46228Y20447D02*
G01X46228Y17653D01*
G54D12*
G01X46228Y17399D02*
G01X46228Y16764D01*
G01X46101Y16637D01*
G01X44965Y16637D01*
G01X44836Y16507D01*
G01X46355Y14478D02*
G01X45339Y15494D01*
G01X44846Y15494D01*
G54D11*
G01X46228Y17586D02*
G01X46294Y17653D01*
G01X49149Y17653D01*
G54D12*
G01X46355Y14478D02*
G01X46355Y14732D01*
G01X46736Y15113D01*
G01X44841Y16002D02*
G01X46355Y16002D01*
G01X47879Y16002D01*
G54D11*
G01X47879Y16002D02*
G01X47879Y13970D01*
G01X47879Y13970D02*
G01X47879Y13970D01*
G01X47879Y8890D01*
G01X49276Y7493D01*
G54D12*
G01X43693Y16002D02*
G01X42291Y16002D01*
G54D13*
G01X45212Y13081D02*
G01X45212Y11160D01*
G01X45212Y8001D01*
G01X46355Y6858D01*
G54D11*
G01X46355Y6858D02*
G01X46990Y6858D01*
G01X48133Y5715D01*
G01X48508Y5715D01*
G01X50546Y5715D01*
G01X50673Y6096D01*
G01X50673Y6096D02*
G01X50673Y17145D01*
G54D13*
G01X41148Y11811D02*
G01X41148Y10541D01*
G01X42037Y9652D01*
G01X43180Y9652D01*
G01X43164Y9667D01*
G01X43164Y10579D01*
G01X41910Y8890D02*
G01X43815Y8890D01*
G01X43815Y10706D01*
G01X43164Y12915D02*
G01X43164Y11826D01*
G01X43180Y11811D01*
G01X44450Y11811D01*
G01X44465Y11795D01*
G01X44465Y10706D01*
G01X45212Y13081D02*
G01X45212Y13716D01*
G01X45085Y13843D01*
G01X44450Y13843D01*
G01X44450Y13843D01*
G01X44465Y12915D01*
G01X41910Y8890D02*
G01X39370Y8890D01*
G01X39370Y11811D01*
G54D11*
G01X42926Y29337D02*
G01X42672Y29337D01*
G01X41275Y27940D01*
G01X41275Y26797D01*
G01X41336Y26857D01*
G01X43840Y26857D01*
G01X41148Y19177D02*
G01X41148Y20320D01*
G01X42672Y21844D01*
G01X42672Y25019D01*
G01X42733Y24958D01*
G01X43840Y24958D01*
G54D15*
G01X39370Y11811D02*
G01X40513Y12954D01*
G01X40513Y15748D01*
G01X40767Y16002D01*
G01X42291Y16002D01*
G54D13*
G01X43815Y12915D02*
G01X43815Y14224D01*
G01X42926Y14224D01*
G01X42926Y14732D01*
G54D12*
G01X43699Y15511D02*
G01X43070Y15511D01*
G01X42926Y15367D01*
G01X42926Y14732D01*
G54D11*
G01X977Y25906D02*
G01X977Y27520D01*
G01X2159Y28702D01*
G01X2159Y29210D01*
G01X2667Y27432D02*
G01X2476Y27241D01*
G01X2476Y25906D01*
G01X15240Y21971D02*
G01X15240Y24638D01*
G01X18161Y27559D01*
G01X19085Y27559D01*
G01X15240Y19431D02*
G01X16510Y19431D01*
G01X16510Y24511D01*
G01X18034Y26035D01*
G01X19436Y26035D01*
G01X21554Y26035D02*
G01X21554Y26380D01*
G01X23114Y27940D01*
G01X15367Y16129D02*
G01X15367Y17653D01*
G01X15621Y17907D01*
G01X17526Y17907D01*
G01X17526Y20701D01*
G01X18796Y21971D01*
G01X32773Y36342D02*
G01X52176Y36342D01*
G01X52197Y36322D01*
G01X53721Y36322D01*
G01X54356Y35687D01*
G01X54300Y35631D01*
G01X54300Y34116D01*
G01X35696Y36342D02*
G01X35696Y34045D01*
G01X35560Y33909D01*
G01X31369Y31658D02*
G01X27340Y31658D01*
G01X24130Y28448D01*
G01X24130Y21590D01*
G01X21971Y19431D01*
G01X19436Y26035D02*
G01X21554Y26035D01*
G54D13*
G01X30231Y27038D02*
G01X28575Y27051D01*
G01X28575Y27432D01*
G01X30231Y25736D02*
G01X28403Y25736D01*
G01X28321Y25654D01*
G01X30228Y25085D02*
G01X28895Y25085D01*
G01X28829Y25019D01*
G01X28829Y24384D01*
G54D11*
G01X28575Y27432D02*
G01X28575Y27951D01*
G01X30214Y29591D01*
G01X28321Y25654D02*
G01X28067Y25527D01*
G01X27940Y25400D01*
G01X27940Y22860D01*
G01X28829Y21971D01*
G01X28829Y24384D02*
G01X28829Y24003D01*
G01X29210Y23622D01*
G01X30734Y23622D01*
G01X30861Y23495D01*
G01X30861Y21336D01*
G01X29845Y20320D01*
G54D13*
G01X30228Y26385D02*
G01X27716Y26385D01*
G01X27686Y26416D01*
G54D11*
G01X27716Y26385D02*
G01X27274Y26385D01*
G01X26162Y25273D01*
G01X26162Y17907D01*
G01X26162Y28067D02*
G01X26162Y27686D01*
G01X25273Y26797D01*
G01X25273Y19939D01*
G01X24638Y19304D01*
G01X24638Y16383D01*
G01X27051Y16383D01*
G54D14*
G01X27051Y16383D02*
G01X28702Y16383D01*
G01X29083Y16002D01*
G54D11*
G01X27732Y16383D02*
G01X27732Y20112D01*
G01X27813Y20193D01*
G01X29718Y20193D01*
G01X29845Y20320D01*
G54D13*
G01X34531Y26385D02*
G01X36098Y26385D01*
G01X36068Y26416D01*
G54D11*
G01X36068Y26416D02*
G01X36195Y26416D01*
G01X36576Y26416D01*
G01X38862Y24130D01*
G01X38862Y21717D01*
G01X39116Y21463D01*
G54D13*
G01X34532Y25736D02*
G01X35896Y25736D01*
G01X36322Y25400D01*
G54D11*
G01X36322Y25400D02*
G01X36830Y24765D01*
G01X36830Y21927D01*
G01X36449Y21971D01*
G01X34417Y22098D02*
G01X34417Y22098D01*
G01X34417Y19431D01*
G01X34417Y17018D01*
G01X35560Y16002D01*
G01X36703Y16002D01*
G54D13*
G01X34531Y25085D02*
G01X35493Y25085D01*
G01X35814Y24765D01*
G01X35814Y24003D01*
G01X34925Y23114D01*
G01X34417Y23114D01*
G01X34417Y22098D01*
G54D11*
G01X5473Y8126D02*
G01X5473Y11823D01*
G01X5588Y11938D01*
G01X977Y8126D02*
G01X1016Y8088D01*
G01X1016Y4572D01*
G01X1778Y4572D01*
G01X19939Y6223D02*
G01X19939Y8128D01*
G01X19685Y8128D01*
G01X18669Y9144D01*
G01X15240Y9144D01*
G01X14351Y9906D01*
G01X9652Y9906D01*
G01X8470Y9900D01*
G01X8470Y8128D01*
G54D13*
G01X51300Y28110D02*
G01X51625Y28436D01*
G01X51625Y29260D01*
G54D11*
G01X36144Y1270D02*
G01X43815Y1270D01*
G01X43815Y1270D02*
G01X50622Y1270D01*
G01X50673Y6096D02*
G01X50673Y1778D01*
G01X50622Y1270D01*
G01X6972Y8126D02*
G01X6985Y10922D01*
G01X9779Y10922D01*
G01X25781Y33574D02*
G01X26035Y33909D01*
G01X26543Y34417D01*
G54D14*
G01X3975Y8126D02*
G01X3975Y6642D01*
G01X3810Y6477D01*
G54D11*
G01X10033Y6731D02*
G01X5588Y6731D01*
G01X3810Y4953D01*
G01X3810Y3810D01*
G01X1778Y1778D01*
G54D14*
G01X11468Y8126D02*
G01X11468Y6515D01*
G01X11303Y6350D01*
G01X12992Y8126D02*
G01X12992Y6388D01*
G01X12954Y6350D01*
G01X7874Y29718D02*
G01X5473Y27317D01*
G01X5473Y25906D01*
G01X51300Y28110D02*
G01X49867Y28110D01*
G01X48768Y29210D01*
G01X43053Y29210D01*
G01X42926Y29337D01*
G54D16*
G01X20804Y26035D02*
G01X22304Y26035D01*
G54D18*
G01X34531Y25085D03*
G01X30228Y25085D03*
G01X34532Y25736D03*
G01X30231Y25736D03*
G01X34531Y26385D03*
G01X30228Y26385D03*
G01X34532Y27035D03*
G01X30232Y27037D03*
G54D19*
G01X43688Y16510D03*
G01X43693Y16009D03*
G01X43699Y15511D03*
G01X44836Y16507D03*
G01X44842Y16012D03*
G01X44847Y15506D03*
G54D20*
G01X46840Y24958D03*
G01X46840Y25908D03*
G01X46840Y26857D03*
G01X43840Y26857D03*
G01X43840Y24958D03*
G54D21*
G01X44465Y10706D03*
G01X43815Y10706D03*
G01X43164Y10706D03*
G01X43164Y12915D03*
G01X43815Y12915D03*
G01X44465Y12915D03*
G54D22*
G01X19436Y26035D03*
G54D23*
G01X19085Y27559D03*
G01X19085Y24511D03*
G54D24*
G01X977Y8126D03*
G01X2476Y8126D03*
G01X3975Y8126D03*
G01X5473Y8126D03*
G01X6972Y8126D03*
G01X8470Y8126D03*
G01X9969Y8126D03*
G01X11468Y8126D03*
G01X12992Y8126D03*
G01X12992Y25906D03*
G01X11468Y25906D03*
G01X9969Y25906D03*
G01X8470Y25906D03*
G01X6972Y25906D03*
G01X5473Y25906D03*
G01X3975Y25906D03*
G01X2476Y25906D03*
G01X977Y25906D03*
G54D25*
G01X51625Y29260D03*
G01X51625Y29911D03*
G01X51625Y30561D03*
G01X51625Y31211D03*
G01X51625Y31860D03*
G54D26*
G01X45466Y31496D03*
G01X45466Y34036D03*
G54D27*
G01X41148Y19177D03*
G01X41148Y11557D03*
G54D26*
G01X48641Y31496D03*
G01X48641Y34036D03*
G54D27*
G01X26162Y28067D03*
G01X26162Y17907D03*
G54D17*
G01X30214Y29591D03*
G01X28713Y29591D03*
G54D27*
G01X29083Y16002D03*
G01X36703Y16002D03*
G01X36703Y12954D03*
G01X29083Y12954D03*
G01X28829Y21971D03*
G01X36449Y21971D03*
G01X36830Y18415D03*
G01X29210Y18415D03*
G54D17*
G01X28078Y10287D03*
G01X29579Y10287D03*
G54D26*
G01X15240Y19431D03*
G01X15240Y21971D03*
G01X18796Y21971D03*
G01X18796Y19431D03*
G01X21971Y19431D03*
G01X21971Y21971D03*
G01X17907Y16129D03*
G01X15367Y16129D03*
G54D27*
G01X22733Y10541D03*
G01X22733Y2921D03*
G54D26*
G01X22733Y16383D03*
G01X22733Y13843D03*
G54D27*
G01X19939Y13843D03*
G01X19939Y6223D03*
G01X17145Y6223D03*
G01X17145Y13843D03*
G54D28*
G01X27686Y5080D03*
G54D26*
G01X37338Y7239D03*
G01X37338Y4699D03*
G54D27*
G01X39116Y21463D03*
G01X39116Y13843D03*
G54D26*
G01X37973Y10160D03*
G01X35433Y10160D03*
G54D28*
G01X35560Y33909D03*
G54D26*
G01X40386Y29337D03*
G01X42926Y29337D03*
G01X37211Y29210D03*
G01X34671Y29210D03*
G54D27*
G01X41148Y22987D03*
G01X48768Y22987D03*
G54D26*
G01X43688Y20447D03*
G01X46228Y20447D03*
G54D27*
G01X49276Y7493D03*
G01X49276Y15113D03*
G01X46355Y14478D03*
G01X46355Y6858D03*
G54D29*
G01X23622Y34417D03*
G01X26543Y34417D03*
G01X17272Y34417D03*
G01X2159Y32131D03*
G01X2159Y34925D03*
G01X20193Y34417D03*
G01X29464Y34417D03*
G01X1778Y1778D03*
G54D30*
G01X49149Y20447D03*
G01X49149Y17653D03*
G01X40767Y6477D03*
G01X43688Y6477D03*
G01X1778Y4572D03*
G01X2159Y29210D03*
G54D26*
G01X25654Y12446D03*
G01X25654Y14986D03*
G54D30*
G01X46609Y3429D03*
G01X40767Y3429D03*
G01X43688Y3429D03*
G36*
G01X50642Y27838D02*
G01X51028Y27454D01*
G01X51572Y27454D01*
G01X51955Y27838D01*
G01X51955Y28384D01*
G01X51572Y28768D01*
G01X51028Y28768D01*
G01X50642Y28384D01*
G01X50642Y27838D01*
G37*
G36*
G01X50642Y32738D02*
G01X51028Y32354D01*
G01X51572Y32354D01*
G01X51955Y32738D01*
G01X51955Y33284D01*
G01X51572Y33667D01*
G01X51028Y33667D01*
G01X50642Y33284D01*
G01X50642Y32738D01*
G37*
G54D31*
G01X54300Y27004D03*
G01X54300Y34116D03*
G54D17*
G01X2667Y27432D03*
G01X23114Y27940D03*
G01X9779Y10922D03*
G01X5588Y11938D03*
G01X32512Y28067D03*
G01X36068Y1270D03*
G01X2540Y6477D03*
G01X1905Y10922D03*
G01X12192Y13462D03*
G01X34544Y5715D03*
G01X27813Y14478D03*
G01X33528Y14478D03*
G01X48641Y26924D03*
G01X47879Y16002D03*
G01X29845Y20320D03*
G01X11303Y6350D03*
G01X12954Y6350D03*
G01X3810Y6477D03*
G01X7874Y29718D03*
G54D16*
G01X32766Y5329D02*
G01X32766Y4829D01*
G01X30226Y5329D02*
G01X30226Y4829D01*
G01X40640Y34157D02*
G01X40640Y33660D01*
G01X38100Y34157D02*
G01X38100Y33660D01*
G54D32*
G01X8564Y4699D02*
G01X8262Y4699D01*
G01X12562Y4699D02*
G01X12263Y4699D01*
G01X10563Y4699D02*
G01X10264Y4699D01*
G54D16*
G01X14615Y5199D02*
G01X14615Y4198D01*
G01X6212Y5199D02*
G01X6212Y4198D01*
G54D32*
G01X11755Y32639D02*
G01X12054Y32639D01*
G01X7757Y32639D02*
G01X8056Y32639D01*
G01X9756Y32639D02*
G01X10055Y32639D01*
G54D16*
G01X5704Y32138D02*
G01X5704Y33139D01*
G01X14107Y32138D02*
G01X14107Y33139D01*
M00*
M02*
